<?xml version="1.0" encoding="utf-8" standalone="no"?>
<!DOCTYPE svg PUBLIC "-//W3C//DTD SVG 1.1//EN"
  "http://www.w3.org/Graphics/SVG/1.1/DTD/svg11.dtd">
<svg xmlns:xlink="http://www.w3.org/1999/xlink" width="460.8pt" height="345.6pt" viewBox="0 0 460.8 345.6" xmlns="http://www.w3.org/2000/svg" version="1.1">
 <metadata>
  <rdf:RDF xmlns:dc="http://purl.org/dc/elements/1.1/" xmlns:cc="http://creativecommons.org/ns#" xmlns:rdf="http://www.w3.org/1999/02/22-rdf-syntax-ns#">
   <cc:Work>
    <dc:type rdf:resource="http://purl.org/dc/dcmitype/StillImage"/>
    <dc:date>2025-08-22T23:33:57.678900</dc:date>
    <dc:format>image/svg+xml</dc:format>
    <dc:creator>
     <cc:Agent>
      <dc:title>Matplotlib v3.8.3, https://matplotlib.org/</dc:title>
     </cc:Agent>
    </dc:creator>
   </cc:Work>
  </rdf:RDF>
 </metadata>
 <defs>
  <style type="text/css">*{stroke-linejoin: round; stroke-linecap: butt}</style>
 </defs>
 <g id="figure_1">
  <g id="patch_1">
   <path d="M 0 345.6 
L 460.8 345.6 
L 460.8 0 
L 0 0 
z
" style="fill: #ffffff"/>
  </g>
  <g id="axes_1">
   <g id="patch_2">
    <path d="M 33.46 314.84 
L 450 314.84 
L 450 10.8 
L 33.46 10.8 
z
" style="fill: #ffffff"/>
   </g>
   <g id="matplotlib.axis_1">
    <g id="xtick_1">
     <g id="text_1">
      <!-- 0.0 -->
      <g style="fill: #262626" transform="translate(37.860297 331.860937) scale(0.14 -0.14)">
       <defs>
        <path id="ArialMT-30" d="M 266 2259 
Q 266 3072 433 3567 
Q 600 4063 929 4331 
Q 1259 4600 1759 4600 
Q 2128 4600 2406 4451 
Q 2684 4303 2865 4023 
Q 3047 3744 3150 3342 
Q 3253 2941 3253 2259 
Q 3253 1453 3087 958 
Q 2922 463 2592 192 
Q 2263 -78 1759 -78 
Q 1097 -78 719 397 
Q 266 969 266 2259 
z
M 844 2259 
Q 844 1131 1108 757 
Q 1372 384 1759 384 
Q 2147 384 2411 759 
Q 2675 1134 2675 2259 
Q 2675 3391 2411 3762 
Q 2147 4134 1753 4134 
Q 1366 4134 1134 3806 
Q 844 3388 844 2259 
z
" transform="scale(0.015625)"/>
        <path id="ArialMT-2e" d="M 581 0 
L 581 641 
L 1222 641 
L 1222 0 
L 581 0 
z
" transform="scale(0.015625)"/>
       </defs>
       <use xlink:href="#ArialMT-30"/>
       <use xlink:href="#ArialMT-2e" x="55.615234"/>
       <use xlink:href="#ArialMT-30" x="83.398438"/>
      </g>
     </g>
    </g>
    <g id="xtick_2">
     <g id="text_2">
      <!-- 0.2 -->
      <g style="fill: #262626" transform="translate(123.45283 331.860937) scale(0.14 -0.14)">
       <defs>
        <path id="ArialMT-32" d="M 3222 541 
L 3222 0 
L 194 0 
Q 188 203 259 391 
Q 375 700 629 1000 
Q 884 1300 1366 1694 
Q 2113 2306 2375 2664 
Q 2638 3022 2638 3341 
Q 2638 3675 2398 3904 
Q 2159 4134 1775 4134 
Q 1369 4134 1125 3890 
Q 881 3647 878 3216 
L 300 3275 
Q 359 3922 746 4261 
Q 1134 4600 1788 4600 
Q 2447 4600 2831 4234 
Q 3216 3869 3216 3328 
Q 3216 3053 3103 2787 
Q 2991 2522 2730 2228 
Q 2469 1934 1863 1422 
Q 1356 997 1212 845 
Q 1069 694 975 541 
L 3222 541 
z
" transform="scale(0.015625)"/>
       </defs>
       <use xlink:href="#ArialMT-30"/>
       <use xlink:href="#ArialMT-2e" x="55.615234"/>
       <use xlink:href="#ArialMT-32" x="83.398438"/>
      </g>
     </g>
    </g>
    <g id="xtick_3">
     <g id="text_3">
      <!-- 0.4 -->
      <g style="fill: #262626" transform="translate(209.045363 331.860937) scale(0.14 -0.14)">
       <defs>
        <path id="ArialMT-34" d="M 2069 0 
L 2069 1097 
L 81 1097 
L 81 1613 
L 2172 4581 
L 2631 4581 
L 2631 1613 
L 3250 1613 
L 3250 1097 
L 2631 1097 
L 2631 0 
L 2069 0 
z
M 2069 1613 
L 2069 3678 
L 634 1613 
L 2069 1613 
z
" transform="scale(0.015625)"/>
       </defs>
       <use xlink:href="#ArialMT-30"/>
       <use xlink:href="#ArialMT-2e" x="55.615234"/>
       <use xlink:href="#ArialMT-34" x="83.398438"/>
      </g>
     </g>
    </g>
    <g id="xtick_4">
     <g id="text_4">
      <!-- 0.6 -->
      <g style="fill: #262626" transform="translate(294.637896 331.860937) scale(0.14 -0.14)">
       <defs>
        <path id="ArialMT-36" d="M 3184 3459 
L 2625 3416 
Q 2550 3747 2413 3897 
Q 2184 4138 1850 4138 
Q 1581 4138 1378 3988 
Q 1113 3794 959 3422 
Q 806 3050 800 2363 
Q 1003 2672 1297 2822 
Q 1591 2972 1913 2972 
Q 2475 2972 2870 2558 
Q 3266 2144 3266 1488 
Q 3266 1056 3080 686 
Q 2894 316 2569 119 
Q 2244 -78 1831 -78 
Q 1128 -78 684 439 
Q 241 956 241 2144 
Q 241 3472 731 4075 
Q 1159 4600 1884 4600 
Q 2425 4600 2770 4297 
Q 3116 3994 3184 3459 
z
M 888 1484 
Q 888 1194 1011 928 
Q 1134 663 1356 523 
Q 1578 384 1822 384 
Q 2178 384 2434 671 
Q 2691 959 2691 1453 
Q 2691 1928 2437 2201 
Q 2184 2475 1800 2475 
Q 1419 2475 1153 2201 
Q 888 1928 888 1484 
z
" transform="scale(0.015625)"/>
       </defs>
       <use xlink:href="#ArialMT-30"/>
       <use xlink:href="#ArialMT-2e" x="55.615234"/>
       <use xlink:href="#ArialMT-36" x="83.398438"/>
      </g>
     </g>
    </g>
    <g id="xtick_5">
     <g id="text_5">
      <!-- 0.8 -->
      <g style="fill: #262626" transform="translate(380.230429 331.860937) scale(0.14 -0.14)">
       <defs>
        <path id="ArialMT-38" d="M 1131 2484 
Q 781 2613 612 2850 
Q 444 3088 444 3419 
Q 444 3919 803 4259 
Q 1163 4600 1759 4600 
Q 2359 4600 2725 4251 
Q 3091 3903 3091 3403 
Q 3091 3084 2923 2848 
Q 2756 2613 2416 2484 
Q 2838 2347 3058 2040 
Q 3278 1734 3278 1309 
Q 3278 722 2862 322 
Q 2447 -78 1769 -78 
Q 1091 -78 675 323 
Q 259 725 259 1325 
Q 259 1772 486 2073 
Q 713 2375 1131 2484 
z
M 1019 3438 
Q 1019 3113 1228 2906 
Q 1438 2700 1772 2700 
Q 2097 2700 2305 2904 
Q 2513 3109 2513 3406 
Q 2513 3716 2298 3927 
Q 2084 4138 1766 4138 
Q 1444 4138 1231 3931 
Q 1019 3725 1019 3438 
z
M 838 1322 
Q 838 1081 952 856 
Q 1066 631 1291 507 
Q 1516 384 1775 384 
Q 2178 384 2440 643 
Q 2703 903 2703 1303 
Q 2703 1709 2433 1975 
Q 2163 2241 1756 2241 
Q 1359 2241 1098 1978 
Q 838 1716 838 1322 
z
" transform="scale(0.015625)"/>
       </defs>
       <use xlink:href="#ArialMT-30"/>
       <use xlink:href="#ArialMT-2e" x="55.615234"/>
       <use xlink:href="#ArialMT-38" x="83.398438"/>
      </g>
     </g>
    </g>
   </g>
   <g id="matplotlib.axis_2">
    <g id="ytick_1">
     <g id="text_6">
      <!-- 0 -->
      <g style="fill: #262626" transform="translate(18.674688 319.850469) scale(0.14 -0.14)">
       <use xlink:href="#ArialMT-30"/>
      </g>
     </g>
    </g>
    <g id="ytick_2">
     <g id="text_7">
      <!-- 20 -->
      <g style="fill: #262626" transform="translate(10.889375 254.040945) scale(0.14 -0.14)">
       <use xlink:href="#ArialMT-32"/>
       <use xlink:href="#ArialMT-30" x="55.615234"/>
      </g>
     </g>
    </g>
    <g id="ytick_3">
     <g id="text_8">
      <!-- 40 -->
      <g style="fill: #262626" transform="translate(10.889375 188.231421) scale(0.14 -0.14)">
       <use xlink:href="#ArialMT-34"/>
       <use xlink:href="#ArialMT-30" x="55.615234"/>
      </g>
     </g>
    </g>
    <g id="ytick_4">
     <g id="text_9">
      <!-- 60 -->
      <g style="fill: #262626" transform="translate(10.889375 122.421897) scale(0.14 -0.14)">
       <use xlink:href="#ArialMT-36"/>
       <use xlink:href="#ArialMT-30" x="55.615234"/>
      </g>
     </g>
    </g>
    <g id="ytick_5">
     <g id="text_10">
      <!-- 80 -->
      <g style="fill: #262626" transform="translate(10.889375 56.612374) scale(0.14 -0.14)">
       <use xlink:href="#ArialMT-38"/>
       <use xlink:href="#ArialMT-30" x="55.615234"/>
      </g>
     </g>
    </g>
   </g>
   <g id="patch_3">
    <path d="M 52.393636 314.84 
L 71.327273 314.84 
L 71.327273 232.578095 
L 52.393636 232.578095 
z
" clip-path="url(#p7b60152da6)" style="fill: #add8e6; stroke: #ffffff; stroke-linejoin: miter"/>
   </g>
   <g id="patch_4">
    <path d="M 71.327273 314.84 
L 90.260909 314.84 
L 90.260909 265.482857 
L 71.327273 265.482857 
z
" clip-path="url(#p7b60152da6)" style="fill: #add8e6; stroke: #ffffff; stroke-linejoin: miter"/>
   </g>
   <g id="patch_5">
    <path d="M 90.260909 314.84 
L 109.194545 314.84 
L 109.194545 265.482857 
L 90.260909 265.482857 
z
" clip-path="url(#p7b60152da6)" style="fill: #add8e6; stroke: #ffffff; stroke-linejoin: miter"/>
   </g>
   <g id="patch_6">
    <path d="M 109.194545 314.84 
L 128.128182 314.84 
L 128.128182 265.482857 
L 109.194545 265.482857 
z
" clip-path="url(#p7b60152da6)" style="fill: #add8e6; stroke: #ffffff; stroke-linejoin: miter"/>
   </g>
   <g id="patch_7">
    <path d="M 128.128182 314.84 
L 147.061818 314.84 
L 147.061818 268.773333 
L 128.128182 268.773333 
z
" clip-path="url(#p7b60152da6)" style="fill: #add8e6; stroke: #ffffff; stroke-linejoin: miter"/>
   </g>
   <g id="patch_8">
    <path d="M 147.061818 314.84 
L 165.995455 314.84 
L 165.995455 252.320952 
L 147.061818 252.320952 
z
" clip-path="url(#p7b60152da6)" style="fill: #add8e6; stroke: #ffffff; stroke-linejoin: miter"/>
   </g>
   <g id="patch_9">
    <path d="M 165.995455 314.84 
L 184.929091 314.84 
L 184.929091 262.192381 
L 165.995455 262.192381 
z
" clip-path="url(#p7b60152da6)" style="fill: #add8e6; stroke: #ffffff; stroke-linejoin: miter"/>
   </g>
   <g id="patch_10">
    <path d="M 184.929091 314.84 
L 203.862727 314.84 
L 203.862727 216.125714 
L 184.929091 216.125714 
z
" clip-path="url(#p7b60152da6)" style="fill: #add8e6; stroke: #ffffff; stroke-linejoin: miter"/>
   </g>
   <g id="patch_11">
    <path d="M 203.862727 314.84 
L 222.796364 314.84 
L 222.796364 222.706667 
L 203.862727 222.706667 
z
" clip-path="url(#p7b60152da6)" style="fill: #add8e6; stroke: #ffffff; stroke-linejoin: miter"/>
   </g>
   <g id="patch_12">
    <path d="M 222.796364 314.84 
L 241.73 314.84 
L 241.73 206.254286 
L 222.796364 206.254286 
z
" clip-path="url(#p7b60152da6)" style="fill: #add8e6; stroke: #ffffff; stroke-linejoin: miter"/>
   </g>
   <g id="patch_13">
    <path d="M 241.73 314.84 
L 260.663636 314.84 
L 260.663636 202.96381 
L 241.73 202.96381 
z
" clip-path="url(#p7b60152da6)" style="fill: #add8e6; stroke: #ffffff; stroke-linejoin: miter"/>
   </g>
   <g id="patch_14">
    <path d="M 260.663636 314.84 
L 279.597273 314.84 
L 279.597273 143.735238 
L 260.663636 143.735238 
z
" clip-path="url(#p7b60152da6)" style="fill: #add8e6; stroke: #ffffff; stroke-linejoin: miter"/>
   </g>
   <g id="patch_15">
    <path d="M 279.597273 314.84 
L 298.530909 314.84 
L 298.530909 110.830476 
L 279.597273 110.830476 
z
" clip-path="url(#p7b60152da6)" style="fill: #add8e6; stroke: #ffffff; stroke-linejoin: miter"/>
   </g>
   <g id="patch_16">
    <path d="M 298.530909 314.84 
L 317.464545 314.84 
L 317.464545 61.473333 
L 298.530909 61.473333 
z
" clip-path="url(#p7b60152da6)" style="fill: #add8e6; stroke: #ffffff; stroke-linejoin: miter"/>
   </g>
   <g id="patch_17">
    <path d="M 317.464545 314.84 
L 336.398182 314.84 
L 336.398182 45.020952 
L 317.464545 45.020952 
z
" clip-path="url(#p7b60152da6)" style="fill: #add8e6; stroke: #ffffff; stroke-linejoin: miter"/>
   </g>
   <g id="patch_18">
    <path d="M 336.398182 314.84 
L 355.331818 314.84 
L 355.331818 54.892381 
L 336.398182 54.892381 
z
" clip-path="url(#p7b60152da6)" style="fill: #add8e6; stroke: #ffffff; stroke-linejoin: miter"/>
   </g>
   <g id="patch_19">
    <path d="M 355.331818 314.84 
L 374.265455 314.84 
L 374.265455 25.278095 
L 355.331818 25.278095 
z
" clip-path="url(#p7b60152da6)" style="fill: #add8e6; stroke: #ffffff; stroke-linejoin: miter"/>
   </g>
   <g id="patch_20">
    <path d="M 374.265455 314.84 
L 393.199091 314.84 
L 393.199091 97.668571 
L 374.265455 97.668571 
z
" clip-path="url(#p7b60152da6)" style="fill: #add8e6; stroke: #ffffff; stroke-linejoin: miter"/>
   </g>
   <g id="patch_21">
    <path d="M 393.199091 314.84 
L 412.132727 314.84 
L 412.132727 212.835238 
L 393.199091 212.835238 
z
" clip-path="url(#p7b60152da6)" style="fill: #add8e6; stroke: #ffffff; stroke-linejoin: miter"/>
   </g>
   <g id="patch_22">
    <path d="M 412.132727 314.84 
L 431.066364 314.84 
L 431.066364 304.968571 
L 412.132727 304.968571 
z
" clip-path="url(#p7b60152da6)" style="fill: #add8e6; stroke: #ffffff; stroke-linejoin: miter"/>
   </g>
   <g id="patch_23">
    <path d="M 33.46 314.84 
L 33.46 10.8 
" style="fill: none; stroke: #cccccc; stroke-width: 0.8; stroke-linejoin: miter; stroke-linecap: square"/>
   </g>
   <g id="patch_24">
    <path d="M 450 314.84 
L 450 10.8 
" style="fill: none; stroke: #cccccc; stroke-width: 0.8; stroke-linejoin: miter; stroke-linecap: square"/>
   </g>
   <g id="patch_25">
    <path d="M 33.46 314.84 
L 450 314.84 
" style="fill: none; stroke: #cccccc; stroke-width: 0.8; stroke-linejoin: miter; stroke-linecap: square"/>
   </g>
   <g id="patch_26">
    <path d="M 33.46 10.8 
L 450 10.8 
" style="fill: none; stroke: #cccccc; stroke-width: 0.8; stroke-linejoin: miter; stroke-linecap: square"/>
   </g>
  </g>
 </g>
 <defs>
  <clipPath id="p7b60152da6">
   <rect x="33.46" y="10.8" width="416.54" height="304.04"/>
  </clipPath>
 </defs>
</svg>
